:version 1.10
:name ASF
:units
  mass 1
  length 1
  angle deg
:documentation
  ASF file generated by Kaydara
:root
  axis xyz
  order  tx ty tz rx ry rz
  position 0 0 0
  orientation 0 0 0
:bonedata
  begin
    id 1
    name RightUpLegDummy
    direction -0.718183 -0.695806 0.00816078
    length 4.904
    axis 0 0 0 xyz
  end
  begin
    id 2
    name RightUpLeg
    direction 3.53373e-006 -0.995788 0.0916898
    length 17.4976
    axis -3.49089 -0.000906625 0.000286804 xyz
    dof rx ry rz
  end
  begin
    id 3
    name RightLeg
    direction 0.00371092 -0.995096 -0.0988419
    length 16.5821
    axis 3.68512 0.0193738 -0.131023 xyz
    dof rx ry rz
  end
  begin
    id 4
    name RightFoot
    direction 0.00079151 -0.46099 0.887405
    length 3.77069
    axis 4.81691e-005 -0.120479 -0.188788 xyz
    dof rx ry rz
  end
  begin
    id 5
    name RightToes
    direction 0 0 0
    length 0
    axis 0 0 0 xyz
    dof rx ry rz
  end
  begin
    id 6
    name SpineDummy
    direction 8.3039e-015 1 4.57515e-016
    length 4.6813
    axis 0 0 0 xyz
  end
  begin
    id 7
    name Spine
    direction -3.15643e-008 0.999988 0.00495137
    length 10.1015
    axis -0.001389 0.000121418 2.40972e-006 xyz
    dof rx ry rz
  end
  begin
    id 8
    name Spine1
    direction 0 0 0
    length 0
    axis -0.001389 0.000121451 1.30017e-006 xyz
    dof rx ry rz
  end
  begin
    id 9
    name HEadDummy
    direction -1.99912e-008 0.999999 0.00127422
    length 3.43865
    axis -0.001389 0.000121451 1.30017e-006 xyz
  end
  begin
    id 10
    name HEad
    direction 0 0 0
    length 0
    axis 0 0 0 xyz
    dof rx ry rz
  end
  begin
    id 11
    name LeftShoulder1Dummy
    direction 0.998891 -0.0402509 -0.0244456
    length 3.5433
    axis -0.001389 0.000121451 1.30017e-006 xyz
  end
  begin
    id 12
    name LeftShoulder1
    direction 0.99951 -0.000327763 0.0313091
    length 4.05031
    axis -0.001389 0.000121451 1.30017e-006 xyz
    dof rx ry rz
  end
  begin
    id 13
    name LeftArm
    direction 0.998561 -0.00100056 -0.0536182
    length 10.3537
    axis -23.1894 0.134784 0.967509 xyz
    dof rx ry rz
  end
  begin
    id 14
    name LeftForeArm
    direction 0.998903 0.00866432 0.046012
    length 8.70632
    axis -9.91835 -0.06569 -0.177794 xyz
    dof rx ry rz
  end
  begin
    id 15
    name LeftHand
    direction 0 0 0
    length 0
    axis 0 0 0 xyz
    dof rx ry rz
  end
  begin
    id 16
    name RightShoulderDummy
    direction -0.998891 -0.0402509 -0.0244414
    length 3.5433
    axis -0.001389 0.000121451 1.30017e-006 xyz
  end
  begin
    id 17
    name RightShoulder
    direction -0.99951 -0.000327807 0.0313133
    length 4.05031
    axis 0.215806 0.000203643 -0.0068026 xyz
    dof rx ry rz
  end
  begin
    id 18
    name RightArm
    direction -0.998573 -0.000999564 -0.053403
    length 10.3947
    axis -23.2009 -0.134239 -0.964101 xyz
    dof rx ry rz
  end
  begin
    id 19
    name RightForeArm
    direction -0.998898 0.00868028 0.0461306
    length 8.68355
    axis -9.92322 0.0658061 0.178868 xyz
    dof rx ry rz
  end
  begin
    id 20
    name RightHand
    direction 0 0 0
    length 0
    axis 0 0 0 xyz
    dof rx ry rz
  end
  begin
    id 21
    name LeftUpLegDummy
    direction 0.718183 -0.695806 0.00816078
    length 4.904
    axis 0 0 0 xyz
  end
  begin
    id 22
    name LeftUpLeg
    direction -6.81752e-006 -0.995793 0.0916337
    length 17.4976
    axis -3.48766 0.00143442 -0.000524262 xyz
    dof rx ry rz
  end
  begin
    id 23
    name LeftLeg
    direction -0.00601358 -0.995091 -0.0987824
    length 16.5821
    axis 3.68178 -0.00654042 -0.000285133 xyz
    dof rx ry rz
  end
  begin
    id 24
    name LeftFoot
    direction -0.00417578 -0.460984 0.887399
    length 3.77069
    axis 1.87233e-006 4.66016e-005 -8.6538e-006 xyz
    dof rx ry rz
  end
  begin
    id 25
    name LeftToes
    direction 0 0 0
    length 0
    axis 0 0 0 xyz
    dof rx ry rz
  end
:hierarchy
  begin
    root RightUpLegDummy SpineDummy LeftUpLegDummy
    RightUpLegDummy RightUpLeg
    RightUpLeg RightLeg
    RightLeg RightFoot
    RightFoot RightToes
    SpineDummy Spine
    Spine Spine1
    Spine1 HEadDummy LeftShoulder1Dummy RightShoulderDummy
    HEadDummy HEad
    LeftShoulder1Dummy LeftShoulder1
    LeftShoulder1 LeftArm
    LeftArm LeftForeArm
    LeftForeArm LeftHand
    RightShoulderDummy RightShoulder
    RightShoulder RightArm
    RightArm RightForeArm
    RightForeArm RightHand
    LeftUpLegDummy LeftUpLeg
    LeftUpLeg LeftLeg
    LeftLeg LeftFoot
    LeftFoot LeftToes
  end

:SAMPLES-PER-SECOND 30
:FULLY-SPECIFIED
:DEGREES
158
root  -71.9295 41.4926 -0.274367 -42.689 -88.3573 39.6538
RightUpLeg  0.675383 -9.09518 -6.12625
RightLeg  9.14948 -3.07499 2.9579
RightFoot  -3.69696 0.018623 -0.65187
RightToes  0.000481921 0.542163 -0.142578
Spine  7.53991 0.993202 3.22225
Spine1  2.24045 2.4147 -5.22109
HEad  -13.462 -6.04431 4.93655
LeftShoulder1  4.00948 -6.15814 -35.4112
LeftArm  -23.7739 33.1638 -36.9093
LeftForeArm  25.2097 -13.7352 -1.59701
LeftHand  -0.25398 0.0180481 5.50724
RightShoulder  5.36743 8.22714 39.6276
RightArm  -11.3726 -22.1373 34.6954
RightForeArm  -5.14384 38.3771 9.17959
RightHand  -2.8026 9.80664 -21.6101
LeftUpLeg  -2.75306 5.29605 4.47402
LeftLeg  5.30219 3.04721 -2.16549
LeftFoot  1.29017 0.223096 -2.08633
LeftToes  1.06247e-005 4.65869e-005 -8.65512e-006
159
root  -72.1429 41.5221 -0.179847 -21.8063 -86.7771 19.2803
RightUpLeg  1.22289 -9.13219 -6.41082
RightLeg  8.24908 -4.67316 2.94266
RightFoot  -3.75056 -0.0105436 -0.21475
RightToes  0.000481921 0.542163 -0.142578
Spine  6.90797 0.942239 3.46683
Spine1  1.95606 2.31117 -5.09351
HEad  -12.2114 -6.01899 5.55708
LeftShoulder1  3.66634 -5.89069 -32.9504
LeftArm  -25.8142 28.9979 -34.2723
LeftForeArm  30.2368 -18.0031 -2.02176
LeftHand  -0.25398 0.0180481 5.50724
RightShoulder  4.74748 7.42694 37.3905
RightArm  -15.6388 -25.4856 31.2279
RightForeArm  -10.6964 36.3288 8.86053
RightHand  -3.25028 10.7405 -23.5335
LeftUpLeg  -2.86038 4.79617 4.14642
LeftLeg  4.51059 1.81951 -2.45061
LeftFoot  1.50772 0.206281 -1.91529
LeftToes  1.06247e-005 4.65869e-005 -8.65512e-006
160
root  -72.3545 41.5693 -0.0829426 -19.2748 -85.5706 17.1702
RightUpLeg  1.84139 -9.1324 -6.72643
RightLeg  7.19476 -5.86376 2.83038
RightFoot  -3.7646 -0.0384611 0.205879
RightToes  0.000481921 0.542163 -0.142578
Spine  6.07387 0.683799 2.95068
Spine1  1.92322 1.86024 -4.48565
HEad  -11.1696 -5.34598 5.80206
LeftShoulder1  3.56781 -6.22369 -30.5804
LeftArm  -26.839 26.7572 -29.8067
LeftForeArm  35.9654 -23.2462 -3.07652
LeftHand  -0.25398 0.0180481 5.50724
RightShoulder  4.02826 6.53475 34.176
RightArm  -18.0192 -26.5793 26.6185
RightForeArm  -15.3203 31.5952 7.74776
RightHand  -3.57807 11.622 -24.5226
LeftUpLeg  -2.50605 4.13211 3.69942
LeftLeg  3.23771 1.46759 -2.67261
LeftFoot  1.91317 0.163267 -1.50444
LeftToes  1.06247e-005 4.65869e-005 -8.65512e-006
161
root  -72.5612 41.6098 -0.00786813 -21.8658 -84.9355 20.105
RightUpLeg  2.21418 -9.2174 -7.21828
RightLeg  6.58527 -6.28588 2.71795
RightFoot  -3.79677 -0.0546455 0.446978
RightToes  0.000481921 0.542163 -0.142578
Spine  5.44283 0.32255 1.7299
Spine1  1.74413 1.23029 -3.54681
HEad  -10.3203 -4.22098 6.0949
LeftShoulder1  3.23522 -6.14212 -27.3682
LeftArm  -26.1562 25.1471 -24.6336
LeftForeArm  40.2201 -27.187 -3.71847
LeftHand  -0.25398 0.0180481 5.50724
RightShoulder  3.45858 5.7863 31.2843
RightArm  -19.6616 -25.4125 20.6145
RightForeArm  -17.5186 24.9406 6.24751
RightHand  -3.63541 12.0028 -24.3724
LeftUpLeg  -1.84771 3.78221 3.21088
LeftLeg  1.78743 1.40868 -2.89763
LeftFoot  2.24121 0.177269 -1.60223
LeftToes  1.06247e-005 4.65869e-005 -8.65512e-006
162
root  -72.7505 41.6249 0.0545604 -25.1362 -84.7619 23.4944
RightUpLeg  2.48802 -9.40989 -7.71078
RightLeg  6.47785 -6.0953 2.68457
RightFoot  -3.91584 -0.065064 0.600902
RightToes  0.000481921 0.542163 -0.142578
Spine  5.11899 0.0667046 1.03909
Spine1  1.4921 0.84993 -3.09319
HEad  -9.36861 -2.95269 6.4082
LeftShoulder1  2.77776 -5.78383 -23.6102
LeftArm  -25.2298 22.9412 -19.3687
LeftForeArm  41.0954 -28.2401 -3.8984
LeftHand  -0.25398 0.0180481 5.50724
RightShoulder  2.96973 5.06573 28.6512
RightArm  -22.756 -23.4602 14.5598
RightForeArm  -18.2797 18.2689 5.02533
RightHand  -3.31306 11.3087 -23.1801
LeftUpLeg  -1.17638 3.72247 2.8949
LeftLeg  0.856206 1.38871 -3.10152
LeftFoot  2.32114 0.217468 -1.93371
LeftToes  1.06247e-005 4.65869e-005 -8.65512e-006
163
root  -72.9243 41.6283 0.130666 -27.978 -84.9474 26.2266
RightUpLeg  2.89444 -9.48648 -8.00664
RightLeg  6.40524 -5.84491 2.612
RightFoot  -4.04873 -0.0819277 0.85684
RightToes  0.000481921 0.542163 -0.142578
Spine  4.81793 -0.0505144 1.40543
Spine1  1.46311 0.818359 -3.48682
HEad  -8.45058 -1.74235 6.57417
LeftShoulder1  2.3829 -5.5412 -19.8255
LeftArm  -24.181 20.2153 -14.3109
LeftForeArm  37.829 -26.5931 -3.71157
LeftHand  -0.25398 0.0180481 5.50724
RightShoulder  2.42844 4.1346 25.6933
RightArm  -25.3734 -21.4948 9.47336
RightForeArm  -19.8613 13.1239 3.85142
RightHand  -2.91305 10.221 -21.8713
LeftUpLeg  -0.679132 3.60779 2.65008
LeftLeg  0.763537 1.77345 -3.08847
LeftFoot  2.10298 0.199929 -1.80332
LeftToes  1.06247e-005 4.65869e-005 -8.65512e-006
164
root  -73.0963 41.637 0.220082 -31.7019 -85.3594 29.8782
RightUpLeg  3.22213 -9.37774 -8.12648
RightLeg  6.24563 -5.66412 2.39311
RightFoot  -4.09251 -0.104912 1.20939
RightToes  0.000481921 0.542163 -0.142578
Spine  4.29426 -0.153324 2.13484
Spine1  1.56114 0.879931 -4.27206
HEad  -7.6642 -0.533699 6.66644
LeftShoulder1  1.95135 -5.18707 -15.6153
LeftArm  -22.2264 17.7465 -10.126
LeftForeArm  32.8848 -23.4584 -3.30456
LeftHand  -0.25398 0.0180481 5.50724
RightShoulder  1.86359 2.976 22.4953
RightArm  -25.7987 -19.2455 5.3595
RightForeArm  -21.8507 9.89822 2.96632
RightHand  -2.77721 9.86658 -21.3519
LeftUpLeg  -0.396598 3.36583 2.34034
LeftLeg  1.06959 2.62256 -2.87496
LeftFoot  1.70219 0.150779 -1.40966
LeftToes  1.06247e-005 4.65869e-005 -8.65512e-006
165
root  -73.2703 41.6516 0.301679 -37.329 -85.9099 35.5774
RightUpLeg  3.31289 -9.28537 -8.21733
RightLeg  6.17226 -5.30312 2.21956
RightFoot  -4.05626 -0.122339 1.47696
RightToes  0.000481921 0.542163 -0.142578
Spine  3.67345 -0.186283 2.18858
Spine1  1.57607 0.779518 -4.00617
HEad  -7.06179 0.753993 6.33622
LeftShoulder1  1.50761 -4.46831 -11.7175
LeftArm  -19.5008 15.7725 -6.84331
LeftForeArm  28.821 -20.1416 -2.87457
LeftHand  -0.25398 0.0180481 5.50724
RightShoulder  1.26079 1.55446 18.2941
RightArm  -25.8665 -16.8063 2.62764
RightForeArm  -21.204 8.51602 2.67038
RightHand  -2.7495 9.98166 -20.9958
LeftUpLeg  -0.125003 3.22974 2.13396
LeftLeg  1.14507 3.51932 -2.76071
LeftFoot  1.34098 0.13967 -1.33097
LeftToes  1.06247e-005 4.65869e-005 -8.65512e-006
166
root  -73.4367 41.6684 0.365642 -44.5129 -86.5618 42.7747
RightUpLeg  3.44585 -9.3711 -8.31998
RightLeg  6.10189 -5.18783 2.32212
RightFoot  -3.96374 -0.130368 1.59966
RightToes  0.000481921 0.542163 -0.142578
Spine  3.29501 -0.127676 1.41841
Spine1  1.49578 0.459686 -2.21019
HEad  -6.68699 2.175 5.39726
LeftShoulder1  1.11838 -3.37066 -8.84607
LeftArm  -19.3981 14.5796 -4.59947
LeftForeArm  27.8174 -18.0683 -2.51613
LeftHand  -0.25398 0.0180481 5.50724
RightShoulder  0.709233 0.0815074 12.7935
RightArm  -25.544 -14.5008 1.31611
RightForeArm  -18.4861 8.29202 2.78533
RightHand  -2.67791 10.0928 -20.3355
LeftUpLeg  0.388035 3.39553 2.21389
LeftLeg  0.872556 4.12875 -2.87453
LeftFoot  1.12532 0.154334 -1.47558
LeftToes  1.06247e-005 4.65869e-005 -8.65512e-006
167
root  -73.5868 41.6878 0.416885 -52.653 -87.2002 50.8123
RightUpLeg  3.75314 -9.53723 -8.31946
RightLeg  5.83547 -6.41246 2.57639
RightFoot  -3.75125 -0.138463 1.72399
RightToes  0.000481921 0.542163 -0.142578
Spine  3.29159 -0.192107 0.869189
Spine1  0.974464 0.133317 -1.00451
HEad  -6.22994 3.47966 4.95703
LeftShoulder1  0.758177 -2.26862 -5.01956
LeftArm  -24.6353 15.2006 -4.59142
LeftForeArm  31.4138 -18.1837 -1.82883
LeftHand  -0.25398 0.0180481 5.50724
RightShoulder  0.503101 -0.410891 8.94491
RightArm  -24.4082 -12.4686 -0.801278
RightForeArm  -16.011 8.01701 3.04052
RightHand  -2.70003 10.4126 -20.0988
LeftUpLeg  1.03162 3.70072 2.465
LeftLeg  0.530046 4.54094 -3.05395
LeftFoot  0.992283 0.148932 -1.4341
LeftToes  1.06247e-005 4.65869e-005 -8.65512e-006
168
root  -73.7179 41.7061 0.460515 -62.2017 -87.6514 60.3799
RightUpLeg  3.89971 -9.60723 -8.16473
RightLeg  5.48505 -9.05606 2.68741
RightFoot  -3.43491 -0.152152 1.93538
RightToes  0.000481921 0.542163 -0.142578
Spine  3.09323 -0.576865 1.18118
Spine1  0.716181 -0.0822018 -1.94305
HEad  -6.06568 4.54997 5.75954
LeftShoulder1  0.300694 -0.570963 1.03785
LeftArm  -34.5825 16.5358 -7.43093
LeftForeArm  39.3694 -19.8766 -1.47453
LeftHand  -0.25398 0.0180481 5.50724
RightShoulder  0.560425 -0.103045 9.0348
RightArm  -23.2345 -9.69589 -4.81871
RightForeArm  -15.7647 7.05307 3.26152
RightHand  -2.86775 10.7497 -20.8723
LeftUpLeg  1.43363 3.88028 2.63092
LeftLeg  0.299027 4.94934 -3.1733
LeftFoot  0.863511 0.12737 -1.24083
LeftToes  1.06247e-005 4.65869e-005 -8.65512e-006
169
root  -73.8269 41.7128 0.501929 -73.7377 -87.8267 72.1021
RightUpLeg  3.74261 -9.60249 -8.04995
RightLeg  5.33546 -11.4859 2.60681
RightFoot  -3.23139 -0.165862 2.147
RightToes  0.000481921 0.542163 -0.142578
Spine  2.77869 -0.590207 1.3414
Spine1  0.499884 -0.113453 -1.86964
HEad  -6.06292 4.77384 5.48156
LeftShoulder1  0.199667 -0.0414107 3.19996
LeftArm  -47.1483 17.3387 -8.66183
LeftForeArm  49.3435 -22.7441 -2.00866
LeftHand  -0.25398 0.0180481 5.50724
RightShoulder  0.39486 -0.767933 6.83914
RightArm  -23.746 -7.76155 -6.06682
RightForeArm  -16.4745 6.55914 3.23564
RightHand  -2.96391 10.3961 -21.999
LeftUpLeg  1.53872 3.8831 2.58974
LeftLeg  0.175574 5.39746 -3.25279
LeftFoot  0.721644 0.116771 -1.14772
LeftToes  1.06247e-005 4.65869e-005 -8.65512e-006
170
root  -73.9118 41.7041 0.546847 -84.1904 -87.7496 82.621
RightUpLeg  3.68508 -9.69282 -8.23647
RightLeg  5.39418 -12.2363 2.53914
RightFoot  -3.3281 -0.175778 2.29932
RightToes  0.000481921 0.542163 -0.142578
Spine  2.83937 -0.602804 1.98798
Spine1  -0.0419184 0.0661529 -2.93674
HEad  -5.93386 4.75127 5.53924
LeftShoulder1  0.114968 0.0404164 5.84107
LeftArm  -43.9144 16.9426 -8.64935
LeftForeArm  42.2403 -20.929 -1.46605
LeftHand  -0.25398 0.0180481 5.50724
RightShoulder  0.338739 -1.0062 5.83311
RightArm  -24.2954 -6.74548 -7.20864
RightForeArm  -18.5839 6.31335 3.24616
RightHand  -3.05734 10.2604 -22.837
LeftUpLeg  1.668 3.7912 2.36616
LeftLeg  0.14655 5.81782 -3.29248
LeftFoot  0.560932 0.113968 -1.13293
LeftToes  1.06247e-005 4.65869e-005 -8.65512e-006
171
root  -73.9779 41.6895 0.590258 -87.7029 -87.5459 86.0025
RightUpLeg  3.94798 -9.90316 -8.66257
RightLeg  5.4332 -11.802 2.59684
RightFoot  -3.61487 -0.183175 2.41178
RightToes  0.000481921 0.542163 -0.142578
Spine  3.08427 -0.619579 2.26091
Spine1  -0.283038 0.121398 -3.35159
HEad  -6.02807 4.79955 5.12217
LeftShoulder1  0.0815866 0.112217 6.87605
LeftArm  -29.4651 14.7822 -6.43967
LeftForeArm  24.9826 -15.525 -0.469764
LeftHand  -0.25398 0.0180481 5.50724
RightShoulder  0.280572 -1.25179 4.55688
RightArm  -24.2623 -6.0533 -7.47115
RightForeArm  -20.589 6.00044 3.44059
RightHand  -3.38417 11.5638 -23.3308
LeftUpLeg  1.91292 3.65018 2.05201
LeftLeg  0.189264 6.07814 -3.2658
LeftFoot  0.398429 0.108722 -1.06292
LeftToes  1.06247e-005 4.65869e-005 -8.65512e-006
172
root  -74.0333 41.6805 0.616594 -82.7877 -87.3483 81.1091
RightUpLeg  4.11595 -10.0503 -8.9571
RightLeg  5.39769 -11.6568 2.6305
RightFoot  -3.8317 -0.188903 2.49721
RightToes  0.000481921 0.542163 -0.142578
Spine  3.08182 -0.676067 2.02576
Spine1  -0.252802 -0.0322425 -2.82623
HEad  -6.29291 4.66516 4.39191
LeftShoulder1  0.1032 0.14284 6.13773
LeftArm  -20.9805 12.575 -3.74201
LeftForeArm  17.9004 -11.9981 -1.50998
LeftHand  -0.25398 0.0180481 5.50724
RightShoulder  0.201588 -1.72133 3.28971
RightArm  -24.1059 -5.12877 -7.16631
RightForeArm  -20.9879 5.46361 3.58875
RightHand  -3.70546 13.1215 -23.3969
LeftUpLeg  1.93743 3.49682 1.78981
LeftLeg  0.214574 6.0379 -3.22834
LeftFoot  0.305728 0.103618 -0.982099
LeftToes  1.06247e-005 4.65869e-005 -8.65512e-006
